<svg width="48" height="48" viewBox="0 0 48 48" fill="none" xmlns="http://www.w3.org/2000/svg">
<path d="M0 24C0 10.7452 10.7452 0 24 0C37.2548 0 48 10.7452 48 24C48 37.2548 37.2548 48 24 48C10.7452 48 0 37.2548 0 24Z" fill="#D6CF1F"/>
<path d="M23.5835 32V20.3C23.4755 20.36 23.3255 20.426 23.1335 20.498C22.9535 20.558 22.7555 20.63 22.5395 20.714C22.3235 20.786 22.1195 20.858 21.9275 20.93C21.7355 20.99 21.5855 21.044 21.4775 21.092V19.04C21.6215 18.968 21.8135 18.872 22.0535 18.752C22.3055 18.632 22.5695 18.5 22.8455 18.356C23.1215 18.212 23.3795 18.056 23.6195 17.888C23.8715 17.72 24.0635 17.564 24.1955 17.42H26.3555V32H23.5835Z" fill="#262A3B"/>
</svg>
