<svg width="48" height="48" viewBox="0 0 48 48" fill="none" xmlns="http://www.w3.org/2000/svg">
<path d="M0 24C0 10.7452 10.7452 0 24 0C37.2548 0 48 10.7452 48 24C48 37.2548 37.2548 48 24 48C10.7452 48 0 37.2548 0 24Z" fill="#D6CF1F"/>
<path d="M20.1853 32V30.038L23.7313 24.584C23.9953 24.176 24.2413 23.786 24.4693 23.414C24.7093 23.042 24.9013 22.664 25.0453 22.28C25.2013 21.884 25.2793 21.464 25.2793 21.02C25.2793 20.552 25.1893 20.198 25.0093 19.958C24.8293 19.706 24.5713 19.58 24.2353 19.58C23.8753 19.58 23.5993 19.682 23.4073 19.886C23.2153 20.078 23.0833 20.336 23.0113 20.66C22.9393 20.984 22.9033 21.338 22.9033 21.722V22.406H20.1853V21.686C20.1853 20.822 20.3173 20.054 20.5813 19.382C20.8573 18.71 21.2833 18.188 21.8593 17.816C22.4473 17.432 23.2153 17.24 24.1633 17.24C25.4473 17.24 26.4133 17.576 27.0613 18.248C27.7093 18.92 28.0333 19.862 28.0333 21.074C28.0333 21.662 27.9433 22.208 27.7633 22.712C27.5833 23.204 27.3433 23.684 27.0433 24.152C26.7553 24.608 26.4433 25.082 26.1073 25.574L23.2993 29.804H27.6373V32H20.1853Z" fill="#262A3B"/>
</svg>
