<svg width="48" height="48" viewBox="0 0 48 48" fill="none" xmlns="http://www.w3.org/2000/svg">
<path d="M0 24C0 10.7452 10.7452 0 24 0C37.2548 0 48 10.7452 48 24C48 37.2548 37.2548 48 24 48C10.7452 48 0 37.2548 0 24Z" fill="#D6CF1F"/>
<path d="M24.0553 32.252C23.0833 32.252 22.3093 32.072 21.7333 31.712C21.1693 31.34 20.7613 30.824 20.5093 30.164C20.2573 29.492 20.1313 28.724 20.1313 27.86V27.338H22.9033C22.9033 27.362 22.9033 27.428 22.9033 27.536C22.9033 27.632 22.9033 27.728 22.9033 27.824C22.9153 28.292 22.9513 28.682 23.0113 28.994C23.0833 29.294 23.2033 29.522 23.3713 29.678C23.5393 29.834 23.7793 29.912 24.0913 29.912C24.4153 29.912 24.6553 29.834 24.8113 29.678C24.9673 29.51 25.0753 29.27 25.1353 28.958C25.1953 28.646 25.2253 28.262 25.2253 27.806C25.2253 27.074 25.1173 26.51 24.9013 26.114C24.6853 25.706 24.2533 25.496 23.6053 25.484C23.5933 25.484 23.5333 25.484 23.4253 25.484C23.3173 25.484 23.2153 25.484 23.1193 25.484V23.432C23.1913 23.432 23.2633 23.432 23.3353 23.432C23.4193 23.432 23.4913 23.432 23.5513 23.432C24.1993 23.432 24.6373 23.258 24.8653 22.91C25.1053 22.562 25.2253 22.016 25.2253 21.272C25.2253 20.696 25.1413 20.246 24.9733 19.922C24.8053 19.598 24.4933 19.436 24.0373 19.436C23.5813 19.436 23.2813 19.616 23.1373 19.976C22.9933 20.336 22.9153 20.798 22.9033 21.362C22.9033 21.458 22.9033 21.566 22.9033 21.686C22.9033 21.794 22.9033 21.902 22.9033 22.01H20.1313V21.218C20.1313 20.366 20.2873 19.646 20.5993 19.058C20.9113 18.458 21.3553 18.002 21.9313 17.69C22.5073 17.378 23.2093 17.222 24.0373 17.222C24.8653 17.222 25.5733 17.372 26.1613 17.672C26.7493 17.972 27.1933 18.41 27.4933 18.986C27.8053 19.562 27.9613 20.276 27.9613 21.128C27.9613 21.98 27.7813 22.688 27.4213 23.252C27.0733 23.816 26.6413 24.176 26.1253 24.332C26.4853 24.452 26.8033 24.65 27.0793 24.926C27.3553 25.202 27.5713 25.574 27.7273 26.042C27.8833 26.498 27.9613 27.068 27.9613 27.752C27.9613 28.628 27.8353 29.408 27.5833 30.092C27.3313 30.764 26.9173 31.292 26.3413 31.676C25.7653 32.06 25.0033 32.252 24.0553 32.252Z" fill="#262A3B"/>
</svg>
