<svg width="56" height="56" viewBox="0 0 56 56" fill="none" xmlns="http://www.w3.org/2000/svg">
<path d="M0 28C0 12.536 12.536 0 28 0C43.464 0 56 12.536 56 28C56 43.464 43.464 56 28 56C12.536 56 0 43.464 0 28Z" fill="#F4F2F0"/>
<g clip-path="url(#clip0_6595_2531)">
<g clip-path="url(#clip1_6595_2531)">
<path d="M23.5 29C22.61 29 21.74 28.7361 20.9999 28.2416C20.2599 27.7472 19.6831 27.0443 19.3425 26.2221C19.0019 25.3998 18.9128 24.495 19.0865 23.6221C19.2601 22.7492 19.6887 21.9474 20.318 21.318C20.9474 20.6887 21.7492 20.2601 22.6221 20.0865C23.495 19.9128 24.3998 20.002 25.2221 20.3425C26.0443 20.6831 26.7471 21.2599 27.2416 21.9999C27.7361 22.74 28 23.61 28 24.5C27.9987 25.6931 27.5241 26.8369 26.6805 27.6805C25.8369 28.5241 24.6931 28.9987 23.5 29ZM23.5 22C23.0055 22 22.5222 22.1466 22.1111 22.4213C21.7 22.696 21.3795 23.0865 21.1903 23.5433C21.0011 24.0001 20.9516 24.5028 21.048 24.9877C21.1445 25.4727 21.3826 25.9181 21.7322 26.2678C22.0819 26.6174 22.5273 26.8555 23.0123 26.952C23.4972 27.0484 23.9999 26.9989 24.4567 26.8097C24.9135 26.6205 25.304 26.3001 25.5787 25.8889C25.8534 25.4778 26 24.9945 26 24.5C26 23.837 25.7366 23.2011 25.2678 22.7322C24.7989 22.2634 24.163 22 23.5 22ZM31 39V38.5C31 36.5109 30.2098 34.6032 28.8033 33.1967C27.3968 31.7902 25.4891 31 23.5 31C21.5109 31 19.6032 31.7902 18.1967 33.1967C16.7902 34.6032 16 36.5109 16 38.5V39C16 39.2652 16.1054 39.5196 16.2929 39.7071C16.4804 39.8946 16.7348 40 17 40C17.2652 40 17.5196 39.8946 17.7071 39.7071C17.8946 39.5196 18 39.2652 18 39V38.5C18 37.0413 18.5795 35.6424 19.6109 34.6109C20.6424 33.5795 22.0413 33 23.5 33C24.9587 33 26.3576 33.5795 27.3891 34.6109C28.4205 35.6424 29 37.0413 29 38.5V39C29 39.2652 29.1054 39.5196 29.2929 39.7071C29.4804 39.8946 29.7348 40 30 40C30.2652 40 30.5196 39.8946 30.7071 39.7071C30.8946 39.5196 31 39.2652 31 39ZM40 34C40 32.6487 39.6088 31.3263 38.8737 30.1924C38.1386 29.0585 37.091 28.1616 35.8574 27.61C34.6238 27.0584 33.2569 26.8756 31.9218 27.0837C30.5866 27.2919 29.3402 27.8821 28.333 28.783C28.2338 28.8702 28.1528 28.9762 28.0948 29.0949C28.0367 29.2135 28.0028 29.3425 27.9949 29.4744C27.987 29.6063 28.0053 29.7384 28.0487 29.8631C28.0922 29.9879 28.1599 30.1028 28.2481 30.2012C28.3362 30.2996 28.4429 30.3796 28.5621 30.4366C28.6813 30.4935 28.8106 30.5262 28.9426 30.5329C29.0745 30.5396 29.2064 30.5201 29.3308 30.4754C29.4551 30.4308 29.5694 30.362 29.667 30.273C30.3865 29.6296 31.2767 29.2082 32.2304 29.0597C33.1841 28.9111 34.1604 29.0417 35.0414 29.4358C35.9225 29.8299 36.6706 30.4705 37.1956 31.2804C37.7206 32.0903 38 33.0348 38 34C38 34.2652 38.1054 34.5196 38.2929 34.7071C38.4804 34.8946 38.7348 35 39 35C39.2652 35 39.5196 34.8946 39.7071 34.7071C39.8946 34.5196 40 34.2652 40 34ZM33.5 25C32.61 25 31.74 24.7361 30.9999 24.2416C30.2599 23.7471 29.6831 23.0443 29.3425 22.2221C29.0019 21.3998 28.9128 20.495 29.0865 19.6221C29.2601 18.7492 29.6887 17.9474 30.318 17.318C30.9474 16.6887 31.7492 16.2601 32.6221 16.0865C33.495 15.9128 34.3998 16.0019 35.2221 16.3425C36.0443 16.6831 36.7471 17.2599 37.2416 17.9999C37.7361 18.74 38 19.61 38 20.5C37.9987 21.6931 37.5241 22.8369 36.6805 23.6805C35.8369 24.5241 34.6931 24.9987 33.5 25ZM33.5 18C33.0055 18 32.5222 18.1466 32.1111 18.4213C31.7 18.696 31.3795 19.0865 31.1903 19.5433C31.0011 20.0001 30.9516 20.5028 31.048 20.9877C31.1445 21.4727 31.3826 21.9181 31.7322 22.2678C32.0819 22.6174 32.5273 22.8555 33.0123 22.952C33.4972 23.0484 33.9999 22.9989 34.4567 22.8097C34.9135 22.6205 35.304 22.3001 35.5787 21.8889C35.8534 21.4778 36 20.9945 36 20.5C36 19.837 35.7366 19.2011 35.2678 18.7322C34.7989 18.2634 34.163 18 33.5 18Z" fill="#A190CC"/>
</g>
</g>
<defs>
<clipPath id="clip0_6595_2531">
<rect width="24" height="24" fill="white" transform="translate(16 16)"/>
</clipPath>
<clipPath id="clip1_6595_2531">
<rect width="24" height="24" fill="white" transform="translate(16 16)"/>
</clipPath>
</defs>
</svg>
