<svg width="25" height="24" viewBox="0 0 25 24" fill="none" xmlns="http://www.w3.org/2000/svg">
<g clip-path="url(#clip0_6595_1748)">
<g clip-path="url(#clip1_6595_1748)">
<path d="M19.2136 12H14.5006C13.9702 12 13.4615 11.7893 13.0864 11.4142C12.7114 11.0391 12.5006 10.5304 12.5006 9.99998V5.27398C12.502 4.81397 12.3976 4.3598 12.1954 3.94659C11.9932 3.53338 11.6987 3.17221 11.3346 2.89098C10.9897 2.6178 10.5865 2.42756 10.1563 2.33497C9.72616 2.24238 9.28045 2.24991 8.85364 2.35698C6.4293 2.95879 4.28297 4.37004 2.76961 6.35735C1.25625 8.34465 0.466516 10.789 0.531002 13.286C0.595487 15.7831 1.51033 18.1834 3.12425 20.09C4.73816 21.9965 6.95447 23.2951 9.40664 23.771C12.1637 24.2987 15.0183 23.7524 17.3857 22.2439C19.7531 20.7354 21.4542 18.3789 22.1406 15.657C22.2481 15.2296 22.2559 14.7833 22.1635 14.3524C22.0711 13.9215 21.8809 13.5177 21.6076 13.172C21.3231 12.8084 20.9598 12.5141 20.5452 12.3111C20.1306 12.1081 19.6753 12.0018 19.2136 12ZM20.2016 15.168C19.8188 16.7098 19.0332 18.1223 17.9253 19.261C16.8174 20.3997 15.427 21.2236 13.8962 21.6486C12.3654 22.0735 10.7492 22.0843 9.21284 21.6797C7.67653 21.2751 6.27526 20.4697 5.15235 19.3458C4.02944 18.222 3.22519 16.82 2.82186 15.2834C2.41854 13.7467 2.43061 12.1305 2.85684 10.6001C3.28307 9.06964 4.10817 7.67987 5.24774 6.57293C6.38731 5.46598 7.80046 4.68159 9.34264 4.29998C9.47457 4.26702 9.61239 4.26541 9.74506 4.29528C9.87773 4.32514 10.0016 4.38566 10.1066 4.47198C10.2307 4.56659 10.3314 4.68851 10.4007 4.82829C10.4701 4.96806 10.5063 5.12194 10.5066 5.27798V9.99998C10.5066 11.0608 10.9281 12.0783 11.6782 12.8284C12.4284 13.5786 13.4458 14 14.5066 14H19.2186C19.376 14.0006 19.5313 14.037 19.6726 14.1062C19.8139 14.1755 19.9377 14.276 20.0346 14.4C20.1196 14.5065 20.1789 14.6313 20.2077 14.7645C20.2365 14.8978 20.2351 15.0358 20.2016 15.168Z" fill="#262A3B" fill-opacity="0.75"/>
<path d="M24.1515 7.44602C23.6911 5.75349 22.7968 4.21052 21.5569 2.9698C20.3171 1.72907 18.7747 0.833608 17.0825 0.372017C16.9051 0.324327 16.7222 0.30012 16.5385 0.300017C16.2743 0.297507 16.0122 0.347385 15.7673 0.44677C15.5225 0.546155 15.2998 0.693076 15.112 0.879043C14.9243 1.06501 14.7753 1.28634 14.6736 1.53024C14.5719 1.77413 14.5195 2.03577 14.5195 2.30002V7.00002C14.5195 7.79567 14.8356 8.55873 15.3982 9.12134C15.9608 9.68395 16.7239 10 17.5195 10H22.2385C22.5472 9.99705 22.851 9.92296 23.1264 9.7835C23.4018 9.64404 23.6413 9.44296 23.8264 9.1959C24.0114 8.94884 24.137 8.66244 24.1934 8.35895C24.2498 8.05547 24.2355 7.74306 24.1515 7.44602ZM21.6535 8.00002H17.5155C17.2503 8.00002 16.996 7.89466 16.8084 7.70712C16.6209 7.51959 16.5155 7.26523 16.5155 7.00002L16.5075 2.30702C16.5149 2.30172 16.5235 2.2986 16.5325 2.29802H16.5585C17.9206 2.6691 19.1616 3.39093 20.1576 4.39146C21.1535 5.39199 21.8697 6.63624 22.2345 8.00002H21.6535Z" fill="#262A3B" fill-opacity="0.75"/>
</g>
</g>
<defs>
<clipPath id="clip0_6595_1748">
<rect width="24" height="24" fill="white" transform="translate(0.5)"/>
</clipPath>
<clipPath id="clip1_6595_1748">
<rect width="24" height="24" fill="white" transform="translate(0.5)"/>
</clipPath>
</defs>
</svg>
