<svg width="56" height="56" viewBox="0 0 56 56" fill="none" xmlns="http://www.w3.org/2000/svg">
<path d="M0 28C0 12.536 12.536 0 28 0C43.464 0 56 12.536 56 28C56 43.464 43.464 56 28 56C12.536 56 0 43.464 0 28Z" fill="#F4F2F0"/>
<path d="M37.1875 19.1875H18.8125C17.2617 19.1875 16 20.4492 16 22V34C16 35.5508 17.2617 36.8125 18.8125 36.8125H37.1875C38.7383 36.8125 40 35.5508 40 34V22C40 20.4492 38.7383 19.1875 37.1875 19.1875ZM38.125 34C38.125 34.5169 37.7044 34.9375 37.1875 34.9375H18.8125C18.2956 34.9375 17.875 34.5169 17.875 34V22C17.875 21.4831 18.2956 21.0625 18.8125 21.0625H37.1875C37.7044 21.0625 38.125 21.4831 38.125 22V34Z" fill="#A190CC"/>
<path d="M37.9667 20.3564L28.0009 27.7691L18.0351 20.3564L16.916 21.8609L28.0009 30.1059L39.0858 21.8609L37.9667 20.3564Z" fill="#A190CC"/>
</svg>
