<svg width="56" height="56" viewBox="0 0 56 56" fill="none" xmlns="http://www.w3.org/2000/svg">
<path d="M0 28C0 12.536 12.536 0 28 0C43.464 0 56 12.536 56 28C56 43.464 43.464 56 28 56C12.536 56 0 43.464 0 28Z" fill="#F4F2F0"/>
<g clip-path="url(#clip0_6609_548)">
<g clip-path="url(#clip1_6609_548)">
<path d="M39.121 25.069L31.536 17.483C30.5973 16.547 29.3257 16.0214 28 16.0214C26.6744 16.0214 25.4028 16.547 24.464 17.483L16.879 25.069C16.5994 25.3468 16.3778 25.6773 16.2269 26.0414C16.076 26.4055 15.9989 26.7959 16 27.19V37.007C16 37.8026 16.3161 38.5657 16.8787 39.1283C17.4413 39.6909 18.2044 40.007 19 40.007H37C37.7957 40.007 38.5587 39.6909 39.1213 39.1283C39.6839 38.5657 40 37.8026 40 37.007V27.19C40.0011 26.7959 39.924 26.4055 39.7731 26.0414C39.6222 25.6773 39.4006 25.3468 39.121 25.069ZM31 38.007H25V34.073C25 33.2773 25.3161 32.5143 25.8787 31.9517C26.4413 31.3891 27.2044 31.073 28 31.073C28.7957 31.073 29.5587 31.3891 30.1213 31.9517C30.6839 32.5143 31 33.2773 31 34.073V38.007ZM38 37.007C38 37.2722 37.8947 37.5266 37.7071 37.7141C37.5196 37.9016 37.2652 38.007 37 38.007H33V34.073C33 32.7469 32.4732 31.4751 31.5355 30.5375C30.5979 29.5998 29.3261 29.073 28 29.073C26.6739 29.073 25.4022 29.5998 24.4645 30.5375C23.5268 31.4751 23 32.7469 23 34.073V38.007H19C18.7348 38.007 18.4804 37.9016 18.2929 37.7141C18.1054 37.5266 18 37.2722 18 37.007V27.19C18.0009 26.925 18.1062 26.671 18.293 26.483L25.878 18.9C26.4417 18.3389 27.2047 18.0239 28 18.0239C28.7953 18.0239 29.5583 18.3389 30.122 18.9L37.707 26.486C37.8931 26.6732 37.9983 26.926 38 27.19V37.007Z" fill="#A190CC"/>
</g>
</g>
<defs>
<clipPath id="clip0_6609_548">
<rect width="24" height="24" fill="white" transform="translate(16 16)"/>
</clipPath>
<clipPath id="clip1_6609_548">
<rect width="24" height="24" fill="white" transform="translate(16 16)"/>
</clipPath>
</defs>
</svg>
