<svg width="18" height="18" viewBox="0 0 18 18" fill="none" xmlns="http://www.w3.org/2000/svg">
<g clip-path="url(#clip0_6982_1913)">
<path d="M14.3498 8.67676C14.3498 8.39476 14.1915 8.13601 13.9395 8.00776C13.2945 7.67926 12.6037 7.37702 11.8297 7.08302C10.5502 6.59252 9.618 5.64602 9.1335 4.34927C8.84325 3.56252 8.54475 2.86202 8.2215 2.20802C8.09475 1.95302 7.83375 1.79102 7.5495 1.79102C7.26525 1.79102 7.00275 1.95302 6.8775 2.20877C6.555 2.86052 6.25725 3.56102 5.967 4.34627C5.4825 5.64527 4.5495 6.59177 3.27225 7.08152C2.49375 7.37777 1.80225 7.68001 1.1595 8.00776C0.90825 8.13526 0.75 8.39402 0.75 8.67602C0.75 8.95802 0.90825 9.21677 1.16025 9.34502C1.80675 9.67352 2.4975 9.97652 3.27 10.269C4.5495 10.7595 5.48175 11.706 5.96625 13.0035C6.258 13.7933 6.55575 14.4923 6.8775 15.144C7.00425 15.3998 7.2645 15.5618 7.5495 15.5618C7.8345 15.5618 8.0955 15.3998 8.2215 15.144C8.54475 14.4923 8.8425 13.7918 9.132 13.0058C9.61725 11.7068 10.551 10.7603 11.8268 10.2705C12.6023 9.97651 13.293 9.67426 13.9395 9.34576C14.1915 9.21751 14.3498 8.95951 14.3498 8.67676ZM11.292 8.86951C9.624 9.50926 8.35875 10.7918 7.72575 12.4845C7.66725 12.6435 7.60875 12.798 7.5495 12.9495C7.49025 12.798 7.43175 12.6428 7.37175 12.4815C6.74175 10.7925 5.4765 9.50927 3.80475 8.86802C3.63675 8.80502 3.47475 8.74051 3.31575 8.67676C3.474 8.61226 3.63825 8.54851 3.80775 8.48401C5.4765 7.84352 6.74175 6.56102 7.3725 4.86977C7.43175 4.71002 7.491 4.55477 7.5495 4.40402C7.60875 4.55627 7.668 4.71227 7.72725 4.87202C8.35875 6.56177 9.624 7.84426 11.2943 8.48476C11.4623 8.54776 11.625 8.61226 11.784 8.67676C11.6242 8.74126 11.46 8.80501 11.292 8.86951Z" fill="#A190CC"/>
<path d="M12.8212 4.90663C13.0124 5.00413 13.2007 5.08438 13.3859 5.15488C13.5412 5.21488 13.6499 5.32588 13.7084 5.48113C13.7774 5.67088 13.8562 5.85988 13.9514 6.05338C14.0767 6.30988 14.3377 6.47338 14.6234 6.47338H14.6249C14.9099 6.47338 15.1709 6.31138 15.2969 6.05563C15.3922 5.86288 15.4702 5.67313 15.5399 5.48488C15.5999 5.32588 15.7087 5.21488 15.8609 5.15638C16.0492 5.08513 16.2367 5.00488 16.4279 4.90738C16.6799 4.77988 16.8382 4.52038 16.8382 4.23838C16.8382 3.95638 16.6792 3.69763 16.4272 3.57013C16.2367 3.47413 16.0492 3.39388 15.8632 3.32263C15.7087 3.26338 15.5999 3.15238 15.5407 2.99488C15.4702 2.80513 15.3922 2.61538 15.2962 2.42188C15.1702 2.16688 14.9092 2.00488 14.6242 2.00488H14.6227C14.3369 2.00488 14.0767 2.16763 13.9507 2.42413C13.8562 2.61688 13.7774 2.80663 13.7092 2.99263C13.6492 3.15163 13.5404 3.26263 13.3882 3.32113C13.1992 3.39313 13.0117 3.47263 12.8204 3.57013C12.5684 3.69763 12.4102 3.95638 12.4102 4.23838C12.4102 4.52038 12.5684 4.77913 12.8204 4.90663H12.8212Z" fill="#A190CC"/>
<path d="M16.8395 12.8888C16.6017 12.768 16.367 12.6675 16.136 12.5805C15.8817 12.483 15.6965 12.294 15.6012 12.0375C15.5135 11.8005 15.4152 11.5635 15.2967 11.3235C15.17 11.0678 14.909 10.9058 14.6247 10.9058C14.339 10.9058 14.078 11.0685 13.9527 11.325C13.835 11.565 13.7367 11.8013 13.6512 12.0338C13.5537 12.294 13.3685 12.483 13.118 12.579C12.884 12.6675 12.6485 12.768 12.4115 12.8895C12.1602 13.0178 12.002 13.2758 12.002 13.5578C12.002 13.8398 12.1602 14.0978 12.4115 14.226C12.6485 14.3468 12.8825 14.4465 13.1157 14.5358C13.3685 14.6325 13.5537 14.8208 13.6497 15.078C13.7367 15.3143 13.835 15.5513 13.9535 15.7905C14.0795 16.0463 14.3397 16.2083 14.6255 16.209C14.9105 16.209 15.1707 16.0478 15.2975 15.792C15.4167 15.552 15.515 15.315 15.602 15.0803C15.698 14.8208 15.8832 14.6325 16.136 14.5358C16.37 14.4465 16.6032 14.3475 16.8402 14.2268C17.0922 14.0985 17.2505 13.8398 17.2505 13.5578C17.2505 13.2758 17.0922 13.017 16.8402 12.8888H16.8395Z" fill="#A190CC"/>
</g>
<defs>
<clipPath id="clip0_6982_1913">
<rect width="18" height="18" fill="white"/>
</clipPath>
</defs>
</svg>
