<svg width="24" height="24" viewBox="0 0 24 24" fill="none" xmlns="http://www.w3.org/2000/svg">
<g clip-path="url(#clip0_6595_327)">
<path d="M19 1H5C2.243 1 0 3.243 0 6V18C0 20.757 2.243 23 5 23H19C21.757 23 24 20.757 24 18V6C24 3.243 21.757 1 19 1ZM22 18C22 19.654 20.654 21 19 21H5C3.346 21 2 19.654 2 18V6C2 4.346 3.346 3 5 3H19C20.654 3 22 4.346 22 6V18ZM19 7C19 7.552 18.552 8 18 8H11C10.448 8 10 7.552 10 7C10 6.448 10.448 6 11 6H18C18.552 6 19 6.448 19 7ZM8 7C8 7.828 7.328 8.5 6.5 8.5C5.672 8.5 5 7.828 5 7C5 6.172 5.672 5.5 6.5 5.5C7.328 5.5 8 6.172 8 7ZM19 12C19 12.552 18.552 13 18 13H11C10.448 13 10 12.552 10 12C10 11.448 10.448 11 11 11H18C18.552 11 19 11.448 19 12ZM8 12C8 12.828 7.328 13.5 6.5 13.5C5.672 13.5 5 12.828 5 12C5 11.172 5.672 10.5 6.5 10.5C7.328 10.5 8 11.172 8 12ZM19 17C19 17.552 18.552 18 18 18H11C10.448 18 10 17.552 10 17C10 16.448 10.448 16 11 16H18C18.552 16 19 16.448 19 17ZM8 17C8 17.828 7.328 18.5 6.5 18.5C5.672 18.5 5 17.828 5 17C5 16.172 5.672 15.5 6.5 15.5C7.328 15.5 8 16.172 8 17Z" fill="white"/>
</g>
<defs>
<clipPath id="clip0_6595_327">
<rect width="24" height="24" fill="white"/>
</clipPath>
</defs>
</svg>
